<svg width="59" height="56" viewBox="0 0 59 56" fill="none" xmlns="http://www.w3.org/2000/svg">
<path d="M29.5625 19.25C38.944 19.25 46.625 27.0985 46.625 36.875C46.625 46.6515 38.944 54.5 29.5625 54.5C20.181 54.5 12.5 46.6515 12.5 36.875C12.5 27.0985 20.181 19.25 29.5625 19.25Z" stroke="#0245EF" stroke-width="3"/>
<path d="M2 50.1577C7.23906 40.2477 17.6095 33.5 29.5468 33.5C41.5131 33.5 51.8983 40.4254 57.125 50.375" stroke="#0245EF" stroke-width="3"/>
<path d="M2 50.3156C2.63331 50.355 3.27182 50.375 3.91495 50.375C20.8756 50.375 34.625 36.4816 34.625 19.3433C34.625 12.9194 32.6933 6.95136 29.3847 2" stroke="#0245EF" stroke-width="3"/>
<path d="M29.7594 2C26.4368 6.93765 24.5 12.8701 24.5 19.2511C24.5 32.6229 33.0054 44.0252 44.945 48.4302C48.3536 49.6877 52.0421 50.375 55.8925 50.375C56.3052 50.375 56.7161 50.3671 57.125 50.3515" stroke="#0245EF" stroke-width="3"/>
<circle cx="29.5" cy="1.5" r="1.5" fill="#0245EF"/>
<circle cx="57.5" cy="50.5" r="1.5" fill="#0245EF"/>
<circle cx="1.5" cy="50.5" r="1.5" fill="#0245EF"/>
</svg>
