<svg width="203" height="43" viewBox="0 0 203 43" fill="none" xmlns="http://www.w3.org/2000/svg">
<g clip-path="url(#clip0_2214_178)">
<mask id="mask0_2214_178" style="mask-type:luminance" maskUnits="userSpaceOnUse" x="55" y="6" width="148" height="37">
<path d="M203 6.03503H55.4316V42.9999H203V6.03503Z" fill="white"/>
</mask>
<g mask="url(#mask0_2214_178)">
<path d="M61.7121 38.018H55.4316V6.03503H61.7121V38.018ZM79.8868 38.018H73.6305V6.03503H79.8868V38.018ZM59.0238 19.5506H76.0095V24.8374H59.0238V19.5506Z" fill="white"/>
<path d="M85.6484 38.018V14.3363H88.6934H91.7384V38.018H85.6484Z" fill="white"/>
<path d="M128.479 38.018L128.693 32.2243L128.527 31.6932V24.2822L128.503 23.22C128.503 21.675 128.083 20.5404 127.242 19.8162C126.417 19.092 125.061 18.7299 123.174 18.7299C121.572 18.7299 120.065 18.9471 118.654 19.3817C117.258 19.8001 115.965 20.291 114.776 20.8542L115.3 15.9296C115.997 15.5595 116.79 15.2135 117.679 14.8916C118.583 14.5536 119.59 14.28 120.7 14.0708C121.81 13.8616 123.008 13.757 124.292 13.757C126.195 13.757 127.805 13.9904 129.121 14.457C130.438 14.9077 131.484 15.5595 132.262 16.4124C133.054 17.2654 133.625 18.2873 133.974 19.4782C134.323 20.6531 134.498 21.9567 134.498 23.389V38.018H128.479ZM120.843 38.5732C118.527 38.5732 116.759 37.9859 115.538 36.811C114.332 35.6362 113.729 33.9624 113.729 31.7898V31.1139C113.729 28.8125 114.427 27.1146 115.823 26.0203C117.219 24.9098 119.431 24.1454 122.46 23.7269L129.074 22.8096L129.43 26.7927L123.34 27.6859C122.008 27.863 121.056 28.1849 120.485 28.6516C119.93 29.1183 119.653 29.8023 119.653 30.7035V30.9449C119.653 31.8301 119.922 32.5221 120.461 33.021C121.017 33.5038 121.882 33.7452 123.055 33.7452C124.101 33.7452 124.998 33.5762 125.743 33.2382C126.489 32.9003 127.099 32.4577 127.575 31.9105C128.067 31.3473 128.415 30.7196 128.622 30.0276L129.478 33.0934H128.431C128.178 34.1073 127.765 35.0327 127.194 35.8695C126.639 36.6903 125.854 37.3502 124.839 37.849C123.824 38.3318 122.491 38.5732 120.843 38.5732Z" fill="white"/>
<path d="M147.422 38.5974C145.55 38.5974 143.885 38.4123 142.427 38.0422C140.983 37.6881 139.754 37.2858 138.739 36.8351L138.192 31.476C139.397 32.0393 140.722 32.5302 142.164 32.9485C143.624 33.367 145.226 33.5762 146.97 33.5762C148.493 33.5762 149.594 33.3831 150.277 32.9968C150.959 32.5945 151.299 31.9991 151.299 31.2104V31.0656C151.299 30.5345 151.141 30.1 150.824 29.762C150.523 29.424 149.983 29.1183 149.206 28.8447C148.429 28.555 147.335 28.2492 145.923 27.9273C143.973 27.4607 142.427 26.9215 141.284 26.3099C140.158 25.6823 139.349 24.9179 138.858 24.0166C138.366 23.0993 138.12 22.005 138.12 20.7335V20.5163C138.12 18.2793 138.905 16.5975 140.476 15.4709C142.046 14.3283 144.369 13.757 147.446 13.757C149.27 13.757 150.879 13.9421 152.275 14.3122C153.687 14.6663 154.861 15.0927 155.796 15.5916L156.343 20.5163C155.233 19.9852 153.988 19.5426 152.608 19.1885C151.228 18.8184 149.746 18.6333 148.159 18.6333C147.129 18.6333 146.312 18.7219 145.709 18.8989C145.123 19.0598 144.702 19.2932 144.448 19.5989C144.194 19.9048 144.068 20.2749 144.068 20.7094V20.8301C144.068 21.3129 144.203 21.7313 144.472 22.0854C144.758 22.4395 145.273 22.7613 146.018 23.051C146.764 23.3246 147.81 23.6224 149.159 23.9442C151.126 24.3626 152.703 24.8535 153.893 25.4167C155.082 25.98 155.947 26.7043 156.486 27.5894C157.025 28.4584 157.295 29.6011 157.295 31.0173V31.307C157.295 33.7532 156.478 35.5798 154.844 36.7869C153.211 37.9939 150.737 38.5974 147.422 38.5974Z" fill="white"/>
<path d="M192.956 38.5974C191.085 38.5974 189.419 38.4123 187.96 38.0422C186.517 37.6881 185.288 37.2858 184.273 36.8351L183.726 31.476C184.931 32.0393 186.256 32.5302 187.698 32.9485C189.158 33.367 190.76 33.5762 192.504 33.5762C194.027 33.5762 195.128 33.3831 195.811 32.9968C196.493 32.5945 196.834 31.9991 196.834 31.2104V31.0656C196.834 30.5345 196.675 30.1 196.358 29.762C196.057 29.424 195.517 29.1183 194.74 28.8447C193.963 28.555 192.868 28.2492 191.457 27.9273C189.507 27.4607 187.96 26.9215 186.818 26.3099C185.692 25.6823 184.884 24.9179 184.392 24.0166C183.9 23.0993 183.655 22.005 183.655 20.7335V20.5163C183.655 18.2793 184.44 16.5975 186.01 15.4709C187.58 14.3283 189.904 13.757 192.98 13.757C194.804 13.757 196.413 13.9421 197.809 14.3122C199.221 14.6663 200.394 15.0927 201.33 15.5916L201.877 20.5163C200.767 19.9852 199.522 19.5426 198.142 19.1885C196.762 18.8184 195.28 18.6333 193.694 18.6333C192.662 18.6333 191.846 18.7219 191.243 18.8989C190.656 19.0598 190.236 19.2932 189.982 19.5989C189.728 19.9048 189.602 20.2749 189.602 20.7094V20.8301C189.602 21.3129 189.737 21.7313 190.006 22.0854C190.292 22.4395 190.807 22.7613 191.552 23.051C192.298 23.3246 193.345 23.6224 194.692 23.9442C196.66 24.3626 198.237 24.8535 199.427 25.4167C200.616 25.98 201.481 26.7043 202.02 27.5894C202.559 28.4584 202.829 29.6011 202.829 31.0173V31.307C202.829 33.7532 202.012 35.5798 200.379 36.7869C198.745 37.9939 196.271 38.5974 192.956 38.5974Z" fill="white"/>
<path d="M97.0781 38.018V14.3363H103.168V38.018H97.0781Z" fill="white"/>
<path d="M176.464 14.3363H181.983L173.448 32.9485L170.669 39.0065L168.925 42.8114H163.351L167.874 33.0043L159.325 14.3363H164.876L170.669 26.8682L176.464 14.3363Z" fill="white"/>
<path d="M88.6996 12.4473C90.4443 12.4473 91.8593 11.0119 91.8593 9.24117C91.8593 7.47047 90.4443 6.03503 88.6996 6.03503C86.9543 6.03503 85.54 7.47047 85.54 9.24117C85.54 11.0119 86.9543 12.4473 88.6996 12.4473Z" fill="white"/>
<path d="M108.028 20.7455C109.773 20.7455 111.188 19.3101 111.188 17.5394C111.188 15.7687 109.773 14.3333 108.028 14.3333C106.283 14.3333 104.869 15.7687 104.869 17.5394C104.869 19.3101 106.283 20.7455 108.028 20.7455Z" fill="white"/>
</g>
<path d="M34.9256 27.818C34.9256 35.1933 29.1719 41.1141 22.1444 41.1141C15.1169 41.1141 9.36328 35.1933 9.36328 27.818C9.36328 20.4428 15.1169 14.522 22.1444 14.522C29.1719 14.522 34.9256 20.4428 34.9256 27.818Z" stroke="white" stroke-width="2.5" stroke-linecap="round"/>
<path d="M1.49805 37.8383C5.42251 30.3623 13.1908 25.272 22.1327 25.272C31.0964 25.272 38.8757 30.4964 42.7909 38.0022" stroke="white" stroke-width="2.5" stroke-linecap="round"/>
<path d="M1.49805 37.9574C1.97245 37.9871 2.45074 38.0022 2.93249 38.0022C15.6373 38.0022 26.5 27.9289 26.5 15C26.5 10.1539 24.9784 5.23524 22.5 1.5" stroke="white" stroke-width="2.5" stroke-linecap="round"/>
<path d="M22.2922 1.50879C19.8034 5.23368 18.3525 9.70904 18.3525 14.5228C18.3525 24.6103 24.7237 33.212 33.6674 36.5351C36.2207 37.4837 38.9837 38.0022 41.868 38.0022C42.1771 38.0022 42.4849 37.9963 42.7912 37.9845" stroke="white" stroke-width="2.5" stroke-linecap="round"/>
</g>
<defs>
<clipPath id="clip0_2214_178">
<rect width="203" height="43" fill="white"/>
</clipPath>
</defs>
</svg>
